<svg xmlns="http://www.w3.org/2000/svg" viewBox="-122 -100 808 554" width="100%">
            <defs>
                <linearGradient id="bg" x1="0" y1="0" x2="0" y2="1">
                    <stop offset="0%" stop-color="#0d1117" />
                    <stop offset="100%" stop-color="#161b22" />
                </linearGradient>
            </defs>
            <rect x="-122" y="-100" width="808" height="554" fill="url(#bg)" rx="15" />
            <g transform="translate(0, 50)">
                
      <polygon points="-12,2 0,8 0,12 -12,6" fill="#15161e" />
      <polygon points="0,8 12,2 12,6 0,12" fill="#1a1b26" />
      <polygon points="0,-4 12,2 0,8 -12,2" fill="#1f2335" />
    

      <polygon points="-24,8 -12,14 -12,18 -24,12" fill="#15161e" />
      <polygon points="-12,14 0,8 0,12 -12,18" fill="#1a1b26" />
      <polygon points="-12,2 0,8 -12,14 -24,8" fill="#1f2335" />
    

      <polygon points="-36,14 -24,20 -24,24 -36,18" fill="#15161e" />
      <polygon points="-24,20 -12,14 -12,18 -24,24" fill="#1a1b26" />
      <polygon points="-24,8 -12,14 -24,20 -36,14" fill="#1f2335" />
    

      <polygon points="-48,20 -36,26 -36,30 -48,24" fill="#15161e" />
      <polygon points="-36,26 -24,20 -24,24 -36,30" fill="#1a1b26" />
      <polygon points="-36,14 -24,20 -36,26 -48,20" fill="#1f2335" />
    

      <polygon points="-60,26 -48,32 -48,36 -60,30" fill="#15161e" />
      <polygon points="-48,32 -36,26 -36,30 -48,36" fill="#1a1b26" />
      <polygon points="-48,20 -36,26 -48,32 -60,26" fill="#1f2335" />
    

      <polygon points="-72,32 -60,38 -60,42 -72,36" fill="#15161e" />
      <polygon points="-60,38 -48,32 -48,36 -60,42" fill="#1a1b26" />
      <polygon points="-60,26 -48,32 -60,38 -72,32" fill="#1f2335" />
    

      <polygon points="-84,38 -72,44 -72,48 -84,42" fill="#15161e" />
      <polygon points="-72,44 -60,38 -60,42 -72,48" fill="#1a1b26" />
      <polygon points="-72,32 -60,38 -72,44 -84,38" fill="#1f2335" />
    

      <polygon points="0,8 12,14 12,18 0,12" fill="#15161e" />
      <polygon points="12,14 24,8 24,12 12,18" fill="#1a1b26" />
      <polygon points="12,2 24,8 12,14 0,8" fill="#1f2335" />
    

      <polygon points="-12,14 0,20 0,24 -12,18" fill="#15161e" />
      <polygon points="0,20 12,14 12,18 0,24" fill="#1a1b26" />
      <polygon points="0,8 12,14 0,20 -12,14" fill="#1f2335" />
    

      <polygon points="-24,20 -12,26 -12,30 -24,24" fill="#15161e" />
      <polygon points="-12,26 0,20 0,24 -12,30" fill="#1a1b26" />
      <polygon points="-12,14 0,20 -12,26 -24,20" fill="#1f2335" />
    

      <polygon points="-36,26 -24,32 -24,36 -36,30" fill="#15161e" />
      <polygon points="-24,32 -12,26 -12,30 -24,36" fill="#1a1b26" />
      <polygon points="-24,20 -12,26 -24,32 -36,26" fill="#1f2335" />
    

      <polygon points="-48,32 -36,38 -36,42 -48,36" fill="#15161e" />
      <polygon points="-36,38 -24,32 -24,36 -36,42" fill="#1a1b26" />
      <polygon points="-36,26 -24,32 -36,38 -48,32" fill="#1f2335" />
    

      <polygon points="-60,38 -48,44 -48,48 -60,42" fill="#15161e" />
      <polygon points="-48,44 -36,38 -36,42 -48,48" fill="#1a1b26" />
      <polygon points="-48,32 -36,38 -48,44 -60,38" fill="#1f2335" />
    

      <polygon points="-72,44 -60,50 -60,54 -72,48" fill="#15161e" />
      <polygon points="-60,50 -48,44 -48,48 -60,54" fill="#1a1b26" />
      <polygon points="-60,38 -48,44 -60,50 -72,44" fill="#1f2335" />
    

      <polygon points="12,14 24,20 24,24 12,18" fill="#15161e" />
      <polygon points="24,20 36,14 36,18 24,24" fill="#1a1b26" />
      <polygon points="24,8 36,14 24,20 12,14" fill="#1f2335" />
    

      <polygon points="0,20 12,26 12,30 0,24" fill="#15161e" />
      <polygon points="12,26 24,20 24,24 12,30" fill="#1a1b26" />
      <polygon points="12,14 24,20 12,26 0,20" fill="#1f2335" />
    

      <polygon points="-12,26 0,32 0,36 -12,30" fill="#15161e" />
      <polygon points="0,32 12,26 12,30 0,36" fill="#1a1b26" />
      <polygon points="0,20 12,26 0,32 -12,26" fill="#1f2335" />
    

      <polygon points="-24,32 -12,38 -12,42 -24,36" fill="#15161e" />
      <polygon points="-12,38 0,32 0,36 -12,42" fill="#1a1b26" />
      <polygon points="-12,26 0,32 -12,38 -24,32" fill="#1f2335" />
    

      <polygon points="-36,38 -24,44 -24,48 -36,42" fill="#15161e" />
      <polygon points="-24,44 -12,38 -12,42 -24,48" fill="#1a1b26" />
      <polygon points="-24,32 -12,38 -24,44 -36,38" fill="#1f2335" />
    

      <polygon points="-48,44 -36,50 -36,54 -48,48" fill="#15161e" />
      <polygon points="-36,50 -24,44 -24,48 -36,54" fill="#1a1b26" />
      <polygon points="-36,38 -24,44 -36,50 -48,44" fill="#1f2335" />
    

      <polygon points="-60,50 -48,56 -48,60 -60,54" fill="#15161e" />
      <polygon points="-48,56 -36,50 -36,54 -48,60" fill="#1a1b26" />
      <polygon points="-48,44 -36,50 -48,56 -60,50" fill="#1f2335" />
    

      <polygon points="24,20 36,26 36,30 24,24" fill="#15161e" />
      <polygon points="36,26 48,20 48,24 36,30" fill="#1a1b26" />
      <polygon points="36,14 48,20 36,26 24,20" fill="#1f2335" />
    

      <polygon points="12,26 24,32 24,36 12,30" fill="#15161e" />
      <polygon points="24,32 36,26 36,30 24,36" fill="#1a1b26" />
      <polygon points="24,20 36,26 24,32 12,26" fill="#1f2335" />
    

      <polygon points="0,32 12,38 12,42 0,36" fill="#15161e" />
      <polygon points="12,38 24,32 24,36 12,42" fill="#1a1b26" />
      <polygon points="12,26 24,32 12,38 0,32" fill="#1f2335" />
    

      <polygon points="-12,38 0,44 0,48 -12,42" fill="#15161e" />
      <polygon points="0,44 12,38 12,42 0,48" fill="#1a1b26" />
      <polygon points="0,32 12,38 0,44 -12,38" fill="#1f2335" />
    

      <polygon points="-24,44 -12,50 -12,54 -24,48" fill="#15161e" />
      <polygon points="-12,50 0,44 0,48 -12,54" fill="#1a1b26" />
      <polygon points="-12,38 0,44 -12,50 -24,44" fill="#1f2335" />
    

      <polygon points="-36,20 -24,26 -24,60 -36,54" fill="#5a82d6" />
      <polygon points="-24,26 -12,20 -12,54 -24,60" fill="#6b92e7" />
      <polygon points="-24,14 -12,20 -24,26 -36,20" fill="#7aa2f7" />
    

      <polygon points="-48,56 -36,62 -36,66 -48,60" fill="#15161e" />
      <polygon points="-36,62 -24,56 -24,60 -36,66" fill="#1a1b26" />
      <polygon points="-36,50 -24,56 -36,62 -48,56" fill="#1f2335" />
    

      <polygon points="36,26 48,32 48,36 36,30" fill="#15161e" />
      <polygon points="48,32 60,26 60,30 48,36" fill="#1a1b26" />
      <polygon points="48,20 60,26 48,32 36,26" fill="#1f2335" />
    

      <polygon points="24,32 36,38 36,42 24,36" fill="#15161e" />
      <polygon points="36,38 48,32 48,36 36,42" fill="#1a1b26" />
      <polygon points="36,26 48,32 36,38 24,32" fill="#1f2335" />
    

      <polygon points="12,38 24,44 24,48 12,42" fill="#15161e" />
      <polygon points="24,44 36,38 36,42 24,48" fill="#1a1b26" />
      <polygon points="24,32 36,38 24,44 12,38" fill="#1f2335" />
    

      <polygon points="0,44 12,50 12,54 0,48" fill="#15161e" />
      <polygon points="12,50 24,44 24,48 12,54" fill="#1a1b26" />
      <polygon points="12,38 24,44 12,50 0,44" fill="#1f2335" />
    

      <polygon points="-12,50 0,56 0,60 -12,54" fill="#15161e" />
      <polygon points="0,56 12,50 12,54 0,60" fill="#1a1b26" />
      <polygon points="0,44 12,50 0,56 -12,50" fill="#1f2335" />
    

      <polygon points="-24,56 -12,62 -12,66 -24,60" fill="#15161e" />
      <polygon points="-12,62 0,56 0,60 -12,66" fill="#1a1b26" />
      <polygon points="-12,50 0,56 -12,62 -24,56" fill="#1f2335" />
    

      <polygon points="-36,62 -24,68 -24,72 -36,66" fill="#15161e" />
      <polygon points="-24,68 -12,62 -12,66 -24,72" fill="#1a1b26" />
      <polygon points="-24,56 -12,62 -24,68 -36,62" fill="#1f2335" />
    

      <polygon points="48,32 60,38 60,42 48,36" fill="#15161e" />
      <polygon points="60,38 72,32 72,36 60,42" fill="#1a1b26" />
      <polygon points="60,26 72,32 60,38 48,32" fill="#1f2335" />
    

      <polygon points="36,38 48,44 48,48 36,42" fill="#15161e" />
      <polygon points="48,44 60,38 60,42 48,48" fill="#1a1b26" />
      <polygon points="48,32 60,38 48,44 36,38" fill="#1f2335" />
    

      <polygon points="24,44 36,50 36,54 24,48" fill="#15161e" />
      <polygon points="36,50 48,44 48,48 36,54" fill="#1a1b26" />
      <polygon points="36,38 48,44 36,50 24,44" fill="#1f2335" />
    

      <polygon points="12,50 24,56 24,60 12,54" fill="#15161e" />
      <polygon points="24,56 36,50 36,54 24,60" fill="#1a1b26" />
      <polygon points="24,44 36,50 24,56 12,50" fill="#1f2335" />
    

      <polygon points="0,56 12,62 12,66 0,60" fill="#15161e" />
      <polygon points="12,62 24,56 24,60 12,66" fill="#1a1b26" />
      <polygon points="12,50 24,56 12,62 0,56" fill="#1f2335" />
    

      <polygon points="-12,62 0,68 0,72 -12,66" fill="#15161e" />
      <polygon points="0,68 12,62 12,66 0,72" fill="#1a1b26" />
      <polygon points="0,56 12,62 0,68 -12,62" fill="#1f2335" />
    

      <polygon points="-24,68 -12,74 -12,78 -24,72" fill="#15161e" />
      <polygon points="-12,74 0,68 0,72 -12,78" fill="#1a1b26" />
      <polygon points="-12,62 0,68 -12,74 -24,68" fill="#1f2335" />
    

      <polygon points="60,38 72,44 72,48 60,42" fill="#15161e" />
      <polygon points="72,44 84,38 84,42 72,48" fill="#1a1b26" />
      <polygon points="72,32 84,38 72,44 60,38" fill="#1f2335" />
    

      <polygon points="48,44 60,50 60,54 48,48" fill="#15161e" />
      <polygon points="60,50 72,44 72,48 60,54" fill="#1a1b26" />
      <polygon points="60,38 72,44 60,50 48,44" fill="#1f2335" />
    

      <polygon points="36,50 48,56 48,60 36,54" fill="#15161e" />
      <polygon points="48,56 60,50 60,54 48,60" fill="#1a1b26" />
      <polygon points="48,44 60,50 48,56 36,50" fill="#1f2335" />
    

      <polygon points="24,56 36,62 36,66 24,60" fill="#15161e" />
      <polygon points="36,62 48,56 48,60 36,66" fill="#1a1b26" />
      <polygon points="36,50 48,56 36,62 24,56" fill="#1f2335" />
    

      <polygon points="12,62 24,68 24,72 12,66" fill="#15161e" />
      <polygon points="24,68 36,62 36,66 24,72" fill="#1a1b26" />
      <polygon points="24,56 36,62 24,68 12,62" fill="#1f2335" />
    

      <polygon points="0,68 12,74 12,78 0,72" fill="#15161e" />
      <polygon points="12,74 24,68 24,72 12,78" fill="#1a1b26" />
      <polygon points="12,62 24,68 12,74 0,68" fill="#1f2335" />
    

      <polygon points="-12,74 0,80 0,84 -12,78" fill="#15161e" />
      <polygon points="0,80 12,74 12,78 0,84" fill="#1a1b26" />
      <polygon points="0,68 12,74 0,80 -12,74" fill="#1f2335" />
    

      <polygon points="72,44 84,50 84,54 72,48" fill="#15161e" />
      <polygon points="84,50 96,44 96,48 84,54" fill="#1a1b26" />
      <polygon points="84,38 96,44 84,50 72,44" fill="#1f2335" />
    

      <polygon points="60,50 72,56 72,60 60,54" fill="#15161e" />
      <polygon points="72,56 84,50 84,54 72,60" fill="#1a1b26" />
      <polygon points="72,44 84,50 72,56 60,50" fill="#1f2335" />
    

      <polygon points="48,56 60,62 60,66 48,60" fill="#15161e" />
      <polygon points="60,62 72,56 72,60 60,66" fill="#1a1b26" />
      <polygon points="60,50 72,56 60,62 48,56" fill="#1f2335" />
    

      <polygon points="36,17 48,23 48,72 36,66" fill="#9a7ad6" />
      <polygon points="48,23 60,17 60,66 48,72" fill="#ab8be7" />
      <polygon points="48,11 60,17 48,23 36,17" fill="#bb9af7" />
    

      <polygon points="24,68 36,74 36,78 24,72" fill="#15161e" />
      <polygon points="36,74 48,68 48,72 36,78" fill="#1a1b26" />
      <polygon points="36,62 48,68 36,74 24,68" fill="#1f2335" />
    

      <polygon points="12,74 24,80 24,84 12,78" fill="#15161e" />
      <polygon points="24,80 36,74 36,78 24,84" fill="#1a1b26" />
      <polygon points="24,68 36,74 24,80 12,74" fill="#1f2335" />
    

      <polygon points="0,80 12,86 12,90 0,84" fill="#15161e" />
      <polygon points="12,86 24,80 24,84 12,90" fill="#1a1b26" />
      <polygon points="12,74 24,80 12,86 0,80" fill="#1f2335" />
    

      <polygon points="84,50 96,56 96,60 84,54" fill="#15161e" />
      <polygon points="96,56 108,50 108,54 96,60" fill="#1a1b26" />
      <polygon points="96,44 108,50 96,56 84,50" fill="#1f2335" />
    

      <polygon points="72,56 84,62 84,66 72,60" fill="#15161e" />
      <polygon points="84,62 96,56 96,60 84,66" fill="#1a1b26" />
      <polygon points="84,50 96,56 84,62 72,56" fill="#1f2335" />
    

      <polygon points="60,62 72,68 72,72 60,66" fill="#15161e" />
      <polygon points="72,68 84,62 84,66 72,72" fill="#1a1b26" />
      <polygon points="72,56 84,62 72,68 60,62" fill="#1f2335" />
    

      <polygon points="48,68 60,74 60,78 48,72" fill="#15161e" />
      <polygon points="60,74 72,68 72,72 60,78" fill="#1a1b26" />
      <polygon points="60,62 72,68 60,74 48,68" fill="#1f2335" />
    

      <polygon points="36,74 48,80 48,84 36,78" fill="#15161e" />
      <polygon points="48,80 60,74 60,78 48,84" fill="#1a1b26" />
      <polygon points="48,68 60,74 48,80 36,74" fill="#1f2335" />
    

      <polygon points="24,80 36,86 36,90 24,84" fill="#15161e" />
      <polygon points="36,86 48,80 48,84 36,90" fill="#1a1b26" />
      <polygon points="36,74 48,80 36,86 24,80" fill="#1f2335" />
    

      <polygon points="12,86 24,92 24,96 12,90" fill="#15161e" />
      <polygon points="24,92 36,86 36,90 24,96" fill="#1a1b26" />
      <polygon points="24,80 36,86 24,92 12,86" fill="#1f2335" />
    

      <polygon points="96,56 108,62 108,66 96,60" fill="#15161e" />
      <polygon points="108,62 120,56 120,60 108,66" fill="#1a1b26" />
      <polygon points="108,50 120,56 108,62 96,56" fill="#1f2335" />
    

      <polygon points="84,62 96,68 96,72 84,66" fill="#15161e" />
      <polygon points="96,68 108,62 108,66 96,72" fill="#1a1b26" />
      <polygon points="96,56 108,62 96,68 84,62" fill="#1f2335" />
    

      <polygon points="72,68 84,74 84,78 72,72" fill="#15161e" />
      <polygon points="84,74 96,68 96,72 84,78" fill="#1a1b26" />
      <polygon points="84,62 96,68 84,74 72,68" fill="#1f2335" />
    

      <polygon points="60,74 72,80 72,84 60,78" fill="#15161e" />
      <polygon points="72,80 84,74 84,78 72,84" fill="#1a1b26" />
      <polygon points="72,68 84,74 72,80 60,74" fill="#1f2335" />
    

      <polygon points="48,80 60,86 60,90 48,84" fill="#15161e" />
      <polygon points="60,86 72,80 72,84 60,90" fill="#1a1b26" />
      <polygon points="60,74 72,80 60,86 48,80" fill="#1f2335" />
    

      <polygon points="36,86 48,92 48,96 36,90" fill="#15161e" />
      <polygon points="48,92 60,86 60,90 48,96" fill="#1a1b26" />
      <polygon points="48,80 60,86 48,92 36,86" fill="#1f2335" />
    

      <polygon points="24,92 36,98 36,102 24,96" fill="#15161e" />
      <polygon points="36,98 48,92 48,96 36,102" fill="#1a1b26" />
      <polygon points="36,86 48,92 36,98 24,92" fill="#1f2335" />
    

      <polygon points="108,62 120,68 120,72 108,66" fill="#15161e" />
      <polygon points="120,68 132,62 132,66 120,72" fill="#1a1b26" />
      <polygon points="120,56 132,62 120,68 108,62" fill="#1f2335" />
    

      <polygon points="96,68 108,74 108,78 96,72" fill="#15161e" />
      <polygon points="108,74 120,68 120,72 108,78" fill="#1a1b26" />
      <polygon points="108,62 120,68 108,74 96,68" fill="#1f2335" />
    

      <polygon points="84,74 96,80 96,84 84,78" fill="#15161e" />
      <polygon points="96,80 108,74 108,78 96,84" fill="#1a1b26" />
      <polygon points="96,68 108,74 96,80 84,74" fill="#1f2335" />
    

      <polygon points="72,80 84,86 84,90 72,84" fill="#15161e" />
      <polygon points="84,86 96,80 96,84 84,90" fill="#1a1b26" />
      <polygon points="84,74 96,80 84,86 72,80" fill="#1f2335" />
    

      <polygon points="60,86 72,92 72,96 60,90" fill="#15161e" />
      <polygon points="72,92 84,86 84,90 72,96" fill="#1a1b26" />
      <polygon points="72,80 84,86 72,92 60,86" fill="#1f2335" />
    

      <polygon points="48,92 60,98 60,102 48,96" fill="#15161e" />
      <polygon points="60,98 72,92 72,96 60,102" fill="#1a1b26" />
      <polygon points="60,86 72,92 60,98 48,92" fill="#1f2335" />
    

      <polygon points="36,98 48,104 48,108 36,102" fill="#15161e" />
      <polygon points="48,104 60,98 60,102 48,108" fill="#1a1b26" />
      <polygon points="48,92 60,98 48,104 36,98" fill="#1f2335" />
    

      <polygon points="120,68 132,74 132,78 120,72" fill="#15161e" />
      <polygon points="132,74 144,68 144,72 132,78" fill="#1a1b26" />
      <polygon points="132,62 144,68 132,74 120,68" fill="#1f2335" />
    

      <polygon points="108,74 120,80 120,84 108,78" fill="#15161e" />
      <polygon points="120,80 132,74 132,78 120,84" fill="#1a1b26" />
      <polygon points="120,68 132,74 120,80 108,74" fill="#1f2335" />
    

      <polygon points="96,80 108,86 108,90 96,84" fill="#15161e" />
      <polygon points="108,86 120,80 120,84 108,90" fill="#1a1b26" />
      <polygon points="108,74 120,80 108,86 96,80" fill="#1f2335" />
    

      <polygon points="84,86 96,92 96,96 84,90" fill="#15161e" />
      <polygon points="96,92 108,86 108,90 96,96" fill="#1a1b26" />
      <polygon points="96,80 108,86 96,92 84,86" fill="#1f2335" />
    

      <polygon points="72,92 84,98 84,102 72,96" fill="#15161e" />
      <polygon points="84,98 96,92 96,96 84,102" fill="#1a1b26" />
      <polygon points="84,86 96,92 84,98 72,92" fill="#1f2335" />
    

      <polygon points="60,98 72,104 72,108 60,102" fill="#15161e" />
      <polygon points="72,104 84,98 84,102 72,108" fill="#1a1b26" />
      <polygon points="72,92 84,98 72,104 60,98" fill="#1f2335" />
    

      <polygon points="48,104 60,110 60,114 48,108" fill="#15161e" />
      <polygon points="60,110 72,104 72,108 60,114" fill="#1a1b26" />
      <polygon points="60,98 72,104 60,110 48,104" fill="#1f2335" />
    

      <polygon points="132,74 144,80 144,84 132,78" fill="#15161e" />
      <polygon points="144,80 156,74 156,78 144,84" fill="#1a1b26" />
      <polygon points="144,68 156,74 144,80 132,74" fill="#1f2335" />
    

      <polygon points="120,80 132,86 132,90 120,84" fill="#15161e" />
      <polygon points="132,86 144,80 144,84 132,90" fill="#1a1b26" />
      <polygon points="132,74 144,80 132,86 120,80" fill="#1f2335" />
    

      <polygon points="108,86 120,92 120,96 108,90" fill="#15161e" />
      <polygon points="120,92 132,86 132,90 120,96" fill="#1a1b26" />
      <polygon points="120,80 132,86 120,92 108,86" fill="#1f2335" />
    

      <polygon points="96,92 108,98 108,102 96,96" fill="#15161e" />
      <polygon points="108,98 120,92 120,96 108,102" fill="#1a1b26" />
      <polygon points="108,86 120,92 108,98 96,92" fill="#1f2335" />
    

      <polygon points="84,98 96,104 96,108 84,102" fill="#15161e" />
      <polygon points="96,104 108,98 108,102 96,108" fill="#1a1b26" />
      <polygon points="96,92 108,98 96,104 84,98" fill="#1f2335" />
    

      <polygon points="72,104 84,110 84,114 72,108" fill="#15161e" />
      <polygon points="84,110 96,104 96,108 84,114" fill="#1a1b26" />
      <polygon points="84,98 96,104 84,110 72,104" fill="#1f2335" />
    

      <polygon points="60,110 72,116 72,120 60,114" fill="#15161e" />
      <polygon points="72,116 84,110 84,114 72,120" fill="#1a1b26" />
      <polygon points="72,104 84,110 72,116 60,110" fill="#1f2335" />
    

      <polygon points="144,80 156,86 156,90 144,84" fill="#15161e" />
      <polygon points="156,86 168,80 168,84 156,90" fill="#1a1b26" />
      <polygon points="156,74 168,80 156,86 144,80" fill="#1f2335" />
    

      <polygon points="132,86 144,92 144,96 132,90" fill="#15161e" />
      <polygon points="144,92 156,86 156,90 144,96" fill="#1a1b26" />
      <polygon points="144,80 156,86 144,92 132,86" fill="#1f2335" />
    

      <polygon points="120,92 132,98 132,102 120,96" fill="#15161e" />
      <polygon points="132,98 144,92 144,96 132,102" fill="#1a1b26" />
      <polygon points="132,86 144,92 132,98 120,92" fill="#1f2335" />
    

      <polygon points="108,98 120,104 120,108 108,102" fill="#15161e" />
      <polygon points="120,104 132,98 132,102 120,108" fill="#1a1b26" />
      <polygon points="120,92 132,98 120,104 108,98" fill="#1f2335" />
    

      <polygon points="96,104 108,110 108,114 96,108" fill="#15161e" />
      <polygon points="108,110 120,104 120,108 108,114" fill="#1a1b26" />
      <polygon points="108,98 120,104 108,110 96,104" fill="#1f2335" />
    

      <polygon points="84,110 96,116 96,120 84,114" fill="#15161e" />
      <polygon points="96,116 108,110 108,114 96,120" fill="#1a1b26" />
      <polygon points="96,104 108,110 96,116 84,110" fill="#1f2335" />
    

      <polygon points="72,116 84,122 84,126 72,120" fill="#15161e" />
      <polygon points="84,122 96,116 96,120 84,126" fill="#1a1b26" />
      <polygon points="84,110 96,116 84,122 72,116" fill="#1f2335" />
    

      <polygon points="156,86 168,92 168,96 156,90" fill="#15161e" />
      <polygon points="168,92 180,86 180,90 168,96" fill="#1a1b26" />
      <polygon points="168,80 180,86 168,92 156,86" fill="#1f2335" />
    

      <polygon points="144,92 156,98 156,102 144,96" fill="#15161e" />
      <polygon points="156,98 168,92 168,96 156,102" fill="#1a1b26" />
      <polygon points="156,86 168,92 156,98 144,92" fill="#1f2335" />
    

      <polygon points="132,98 144,104 144,108 132,102" fill="#15161e" />
      <polygon points="144,104 156,98 156,102 144,108" fill="#1a1b26" />
      <polygon points="144,92 156,98 144,104 132,98" fill="#1f2335" />
    

      <polygon points="120,104 132,110 132,114 120,108" fill="#15161e" />
      <polygon points="132,110 144,104 144,108 132,114" fill="#1a1b26" />
      <polygon points="132,98 144,104 132,110 120,104" fill="#1f2335" />
    

      <polygon points="108,110 120,116 120,120 108,114" fill="#15161e" />
      <polygon points="120,116 132,110 132,114 120,120" fill="#1a1b26" />
      <polygon points="120,104 132,110 120,116 108,110" fill="#1f2335" />
    

      <polygon points="96,56 108,62 108,126 96,120" fill="#d6566e" />
      <polygon points="108,62 120,56 120,120 108,126" fill="#e7667e" />
      <polygon points="108,50 120,56 108,62 96,56" fill="#f7768e" />
    

      <polygon points="84,122 96,128 96,132 84,126" fill="#15161e" />
      <polygon points="96,128 108,122 108,126 96,132" fill="#1a1b26" />
      <polygon points="96,116 108,122 96,128 84,122" fill="#1f2335" />
    

      <polygon points="168,32 180,38 180,102 168,96" fill="#d6566e" />
      <polygon points="180,38 192,32 192,96 180,102" fill="#e7667e" />
      <polygon points="180,26 192,32 180,38 168,32" fill="#f7768e" />
    

      <polygon points="156,98 168,104 168,108 156,102" fill="#15161e" />
      <polygon points="168,104 180,98 180,102 168,108" fill="#1a1b26" />
      <polygon points="168,92 180,98 168,104 156,98" fill="#1f2335" />
    

      <polygon points="144,104 156,110 156,114 144,108" fill="#15161e" />
      <polygon points="156,110 168,104 168,108 156,114" fill="#1a1b26" />
      <polygon points="156,98 168,104 156,110 144,104" fill="#1f2335" />
    

      <polygon points="132,110 144,116 144,120 132,114" fill="#15161e" />
      <polygon points="144,116 156,110 156,114 144,120" fill="#1a1b26" />
      <polygon points="144,104 156,110 144,116 132,110" fill="#1f2335" />
    

      <polygon points="120,116 132,122 132,126 120,120" fill="#15161e" />
      <polygon points="132,122 144,116 144,120 132,126" fill="#1a1b26" />
      <polygon points="132,110 144,116 132,122 120,116" fill="#1f2335" />
    

      <polygon points="108,122 120,128 120,132 108,126" fill="#15161e" />
      <polygon points="120,128 132,122 132,126 120,132" fill="#1a1b26" />
      <polygon points="120,116 132,122 120,128 108,122" fill="#1f2335" />
    

      <polygon points="96,128 108,134 108,138 96,132" fill="#15161e" />
      <polygon points="108,134 120,128 120,132 108,138" fill="#1a1b26" />
      <polygon points="108,122 120,128 108,134 96,128" fill="#1f2335" />
    

      <polygon points="180,98 192,104 192,108 180,102" fill="#15161e" />
      <polygon points="192,104 204,98 204,102 192,108" fill="#1a1b26" />
      <polygon points="192,92 204,98 192,104 180,98" fill="#1f2335" />
    

      <polygon points="168,104 180,110 180,114 168,108" fill="#15161e" />
      <polygon points="180,110 192,104 192,108 180,114" fill="#1a1b26" />
      <polygon points="180,98 192,104 180,110 168,104" fill="#1f2335" />
    

      <polygon points="156,110 168,116 168,120 156,114" fill="#15161e" />
      <polygon points="168,116 180,110 180,114 168,120" fill="#1a1b26" />
      <polygon points="168,104 180,110 168,116 156,110" fill="#1f2335" />
    

      <polygon points="144,116 156,122 156,126 144,120" fill="#15161e" />
      <polygon points="156,122 168,116 168,120 156,126" fill="#1a1b26" />
      <polygon points="156,110 168,116 156,122 144,116" fill="#1f2335" />
    

      <polygon points="132,122 144,128 144,132 132,126" fill="#15161e" />
      <polygon points="144,128 156,122 156,126 144,132" fill="#1a1b26" />
      <polygon points="144,116 156,122 144,128 132,122" fill="#1f2335" />
    

      <polygon points="120,128 132,134 132,138 120,132" fill="#15161e" />
      <polygon points="132,134 144,128 144,132 132,138" fill="#1a1b26" />
      <polygon points="132,122 144,128 132,134 120,128" fill="#1f2335" />
    

      <polygon points="108,134 120,140 120,144 108,138" fill="#15161e" />
      <polygon points="120,140 132,134 132,138 120,144" fill="#1a1b26" />
      <polygon points="120,128 132,134 120,140 108,134" fill="#1f2335" />
    

      <polygon points="192,104 204,110 204,114 192,108" fill="#15161e" />
      <polygon points="204,110 216,104 216,108 204,114" fill="#1a1b26" />
      <polygon points="204,98 216,104 204,110 192,104" fill="#1f2335" />
    

      <polygon points="180,110 192,116 192,120 180,114" fill="#15161e" />
      <polygon points="192,116 204,110 204,114 192,120" fill="#1a1b26" />
      <polygon points="192,104 204,110 192,116 180,110" fill="#1f2335" />
    

      <polygon points="168,116 180,122 180,126 168,120" fill="#15161e" />
      <polygon points="180,122 192,116 192,120 180,126" fill="#1a1b26" />
      <polygon points="180,110 192,116 180,122 168,116" fill="#1f2335" />
    

      <polygon points="156,122 168,128 168,132 156,126" fill="#15161e" />
      <polygon points="168,128 180,122 180,126 168,132" fill="#1a1b26" />
      <polygon points="168,116 180,122 168,128 156,122" fill="#1f2335" />
    

      <polygon points="144,128 156,134 156,138 144,132" fill="#15161e" />
      <polygon points="156,134 168,128 168,132 156,138" fill="#1a1b26" />
      <polygon points="156,122 168,128 156,134 144,128" fill="#1f2335" />
    

      <polygon points="132,104 144,110 144,144 132,138" fill="#5a82d6" />
      <polygon points="144,110 156,104 156,138 144,144" fill="#6b92e7" />
      <polygon points="144,98 156,104 144,110 132,104" fill="#7aa2f7" />
    

      <polygon points="120,140 132,146 132,150 120,144" fill="#15161e" />
      <polygon points="132,146 144,140 144,144 132,150" fill="#1a1b26" />
      <polygon points="132,134 144,140 132,146 120,140" fill="#1f2335" />
    

      <polygon points="204,110 216,116 216,120 204,114" fill="#15161e" />
      <polygon points="216,116 228,110 228,114 216,120" fill="#1a1b26" />
      <polygon points="216,104 228,110 216,116 204,110" fill="#1f2335" />
    

      <polygon points="192,116 204,122 204,126 192,120" fill="#15161e" />
      <polygon points="204,122 216,116 216,120 204,126" fill="#1a1b26" />
      <polygon points="204,110 216,116 204,122 192,116" fill="#1f2335" />
    

      <polygon points="180,122 192,128 192,132 180,126" fill="#15161e" />
      <polygon points="192,128 204,122 204,126 192,132" fill="#1a1b26" />
      <polygon points="192,116 204,122 192,128 180,122" fill="#1f2335" />
    

      <polygon points="168,128 180,134 180,138 168,132" fill="#15161e" />
      <polygon points="180,134 192,128 192,132 180,138" fill="#1a1b26" />
      <polygon points="180,122 192,128 180,134 168,128" fill="#1f2335" />
    

      <polygon points="156,134 168,140 168,144 156,138" fill="#15161e" />
      <polygon points="168,140 180,134 180,138 168,144" fill="#1a1b26" />
      <polygon points="168,128 180,134 168,140 156,134" fill="#1f2335" />
    

      <polygon points="144,140 156,146 156,150 144,144" fill="#15161e" />
      <polygon points="156,146 168,140 168,144 156,150" fill="#1a1b26" />
      <polygon points="156,134 168,140 156,146 144,140" fill="#1f2335" />
    

      <polygon points="132,146 144,152 144,156 132,150" fill="#15161e" />
      <polygon points="144,152 156,146 156,150 144,156" fill="#1a1b26" />
      <polygon points="144,140 156,146 144,152 132,146" fill="#1f2335" />
    

      <polygon points="216,116 228,122 228,126 216,120" fill="#15161e" />
      <polygon points="228,122 240,116 240,120 228,126" fill="#1a1b26" />
      <polygon points="228,110 240,116 228,122 216,116" fill="#1f2335" />
    

      <polygon points="204,122 216,128 216,132 204,126" fill="#15161e" />
      <polygon points="216,128 228,122 228,126 216,132" fill="#1a1b26" />
      <polygon points="216,116 228,122 216,128 204,122" fill="#1f2335" />
    

      <polygon points="192,128 204,134 204,138 192,132" fill="#15161e" />
      <polygon points="204,134 216,128 216,132 204,138" fill="#1a1b26" />
      <polygon points="204,122 216,128 204,134 192,128" fill="#1f2335" />
    

      <polygon points="180,134 192,140 192,144 180,138" fill="#15161e" />
      <polygon points="192,140 204,134 204,138 192,144" fill="#1a1b26" />
      <polygon points="192,128 204,134 192,140 180,134" fill="#1f2335" />
    

      <polygon points="168,140 180,146 180,150 168,144" fill="#15161e" />
      <polygon points="180,146 192,140 192,144 180,150" fill="#1a1b26" />
      <polygon points="180,134 192,140 180,146 168,140" fill="#1f2335" />
    

      <polygon points="156,146 168,152 168,156 156,150" fill="#15161e" />
      <polygon points="168,152 180,146 180,150 168,156" fill="#1a1b26" />
      <polygon points="168,140 180,146 168,152 156,146" fill="#1f2335" />
    

      <polygon points="144,152 156,158 156,162 144,156" fill="#15161e" />
      <polygon points="156,158 168,152 168,156 156,162" fill="#1a1b26" />
      <polygon points="156,146 168,152 156,158 144,152" fill="#1f2335" />
    

      <polygon points="228,122 240,128 240,132 228,126" fill="#15161e" />
      <polygon points="240,128 252,122 252,126 240,132" fill="#1a1b26" />
      <polygon points="240,116 252,122 240,128 228,122" fill="#1f2335" />
    

      <polygon points="216,128 228,134 228,138 216,132" fill="#15161e" />
      <polygon points="228,134 240,128 240,132 228,138" fill="#1a1b26" />
      <polygon points="228,122 240,128 228,134 216,128" fill="#1f2335" />
    

      <polygon points="204,134 216,140 216,144 204,138" fill="#15161e" />
      <polygon points="216,140 228,134 228,138 216,144" fill="#1a1b26" />
      <polygon points="216,128 228,134 216,140 204,134" fill="#1f2335" />
    

      <polygon points="192,140 204,146 204,150 192,144" fill="#15161e" />
      <polygon points="204,146 216,140 216,144 204,150" fill="#1a1b26" />
      <polygon points="204,134 216,140 204,146 192,140" fill="#1f2335" />
    

      <polygon points="180,146 192,152 192,156 180,150" fill="#15161e" />
      <polygon points="192,152 204,146 204,150 192,156" fill="#1a1b26" />
      <polygon points="192,140 204,146 192,152 180,146" fill="#1f2335" />
    

      <polygon points="168,152 180,158 180,162 168,156" fill="#15161e" />
      <polygon points="180,158 192,152 192,156 180,162" fill="#1a1b26" />
      <polygon points="180,146 192,152 180,158 168,152" fill="#1f2335" />
    

      <polygon points="156,158 168,164 168,168 156,162" fill="#15161e" />
      <polygon points="168,164 180,158 180,162 168,168" fill="#1a1b26" />
      <polygon points="168,152 180,158 168,164 156,158" fill="#1f2335" />
    

      <polygon points="240,128 252,134 252,138 240,132" fill="#15161e" />
      <polygon points="252,134 264,128 264,132 252,138" fill="#1a1b26" />
      <polygon points="252,122 264,128 252,134 240,128" fill="#1f2335" />
    

      <polygon points="228,134 240,140 240,144 228,138" fill="#15161e" />
      <polygon points="240,140 252,134 252,138 240,144" fill="#1a1b26" />
      <polygon points="240,128 252,134 240,140 228,134" fill="#1f2335" />
    

      <polygon points="216,140 228,146 228,150 216,144" fill="#15161e" />
      <polygon points="228,146 240,140 240,144 228,150" fill="#1a1b26" />
      <polygon points="228,134 240,140 228,146 216,140" fill="#1f2335" />
    

      <polygon points="204,146 216,152 216,156 204,150" fill="#15161e" />
      <polygon points="216,152 228,146 228,150 216,156" fill="#1a1b26" />
      <polygon points="216,140 228,146 216,152 204,146" fill="#1f2335" />
    

      <polygon points="192,152 204,158 204,162 192,156" fill="#15161e" />
      <polygon points="204,158 216,152 216,156 204,162" fill="#1a1b26" />
      <polygon points="204,146 216,152 204,158 192,152" fill="#1f2335" />
    

      <polygon points="180,158 192,164 192,168 180,162" fill="#15161e" />
      <polygon points="192,164 204,158 204,162 192,168" fill="#1a1b26" />
      <polygon points="192,152 204,158 192,164 180,158" fill="#1f2335" />
    

      <polygon points="168,164 180,170 180,174 168,168" fill="#15161e" />
      <polygon points="180,170 192,164 192,168 180,174" fill="#1a1b26" />
      <polygon points="180,158 192,164 180,170 168,164" fill="#1f2335" />
    

      <polygon points="252,134 264,140 264,144 252,138" fill="#15161e" />
      <polygon points="264,140 276,134 276,138 264,144" fill="#1a1b26" />
      <polygon points="264,128 276,134 264,140 252,134" fill="#1f2335" />
    

      <polygon points="240,140 252,146 252,150 240,144" fill="#15161e" />
      <polygon points="252,146 264,140 264,144 252,150" fill="#1a1b26" />
      <polygon points="252,134 264,140 252,146 240,140" fill="#1f2335" />
    

      <polygon points="228,146 240,152 240,156 228,150" fill="#15161e" />
      <polygon points="240,152 252,146 252,150 240,156" fill="#1a1b26" />
      <polygon points="240,140 252,146 240,152 228,146" fill="#1f2335" />
    

      <polygon points="216,152 228,158 228,162 216,156" fill="#15161e" />
      <polygon points="228,158 240,152 240,156 228,162" fill="#1a1b26" />
      <polygon points="228,146 240,152 228,158 216,152" fill="#1f2335" />
    

      <polygon points="204,143 216,149 216,168 204,162" fill="#294182" />
      <polygon points="216,149 228,143 228,162 216,168" fill="#334e96" />
      <polygon points="216,137 228,143 216,149 204,143" fill="#3d59a1" />
    

      <polygon points="192,164 204,170 204,174 192,168" fill="#15161e" />
      <polygon points="204,170 216,164 216,168 204,174" fill="#1a1b26" />
      <polygon points="204,158 216,164 204,170 192,164" fill="#1f2335" />
    

      <polygon points="180,170 192,176 192,180 180,174" fill="#15161e" />
      <polygon points="192,176 204,170 204,174 192,180" fill="#1a1b26" />
      <polygon points="192,164 204,170 192,176 180,170" fill="#1f2335" />
    

      <polygon points="264,140 276,146 276,150 264,144" fill="#15161e" />
      <polygon points="276,146 288,140 288,144 276,150" fill="#1a1b26" />
      <polygon points="276,134 288,140 276,146 264,140" fill="#1f2335" />
    

      <polygon points="252,146 264,152 264,156 252,150" fill="#15161e" />
      <polygon points="264,152 276,146 276,150 264,156" fill="#1a1b26" />
      <polygon points="264,140 276,146 264,152 252,146" fill="#1f2335" />
    

      <polygon points="240,152 252,158 252,162 240,156" fill="#15161e" />
      <polygon points="252,158 264,152 264,156 252,162" fill="#1a1b26" />
      <polygon points="252,146 264,152 252,158 240,152" fill="#1f2335" />
    

      <polygon points="228,158 240,164 240,168 228,162" fill="#15161e" />
      <polygon points="240,164 252,158 252,162 240,168" fill="#1a1b26" />
      <polygon points="240,152 252,158 240,164 228,158" fill="#1f2335" />
    

      <polygon points="216,164 228,170 228,174 216,168" fill="#15161e" />
      <polygon points="228,170 240,164 240,168 228,174" fill="#1a1b26" />
      <polygon points="228,158 240,164 228,170 216,164" fill="#1f2335" />
    

      <polygon points="204,170 216,176 216,180 204,174" fill="#15161e" />
      <polygon points="216,176 228,170 228,174 216,180" fill="#1a1b26" />
      <polygon points="216,164 228,170 216,176 204,170" fill="#1f2335" />
    

      <polygon points="192,176 204,182 204,186 192,180" fill="#15161e" />
      <polygon points="204,182 216,176 216,180 204,186" fill="#1a1b26" />
      <polygon points="204,170 216,176 204,182 192,176" fill="#1f2335" />
    

      <polygon points="276,146 288,152 288,156 276,150" fill="#15161e" />
      <polygon points="288,152 300,146 300,150 288,156" fill="#1a1b26" />
      <polygon points="288,140 300,146 288,152 276,146" fill="#1f2335" />
    

      <polygon points="264,152 276,158 276,162 264,156" fill="#15161e" />
      <polygon points="276,158 288,152 288,156 276,162" fill="#1a1b26" />
      <polygon points="276,146 288,152 276,158 264,152" fill="#1f2335" />
    

      <polygon points="252,158 264,164 264,168 252,162" fill="#15161e" />
      <polygon points="264,164 276,158 276,162 264,168" fill="#1a1b26" />
      <polygon points="264,152 276,158 264,164 252,158" fill="#1f2335" />
    

      <polygon points="240,164 252,170 252,174 240,168" fill="#15161e" />
      <polygon points="252,170 264,164 264,168 252,174" fill="#1a1b26" />
      <polygon points="252,158 264,164 252,170 240,164" fill="#1f2335" />
    

      <polygon points="228,170 240,176 240,180 228,174" fill="#15161e" />
      <polygon points="240,176 252,170 252,174 240,180" fill="#1a1b26" />
      <polygon points="240,164 252,170 240,176 228,170" fill="#1f2335" />
    

      <polygon points="216,176 228,182 228,186 216,180" fill="#15161e" />
      <polygon points="228,182 240,176 240,180 228,186" fill="#1a1b26" />
      <polygon points="228,170 240,176 228,182 216,176" fill="#1f2335" />
    

      <polygon points="204,182 216,188 216,192 204,186" fill="#15161e" />
      <polygon points="216,188 228,182 228,186 216,192" fill="#1a1b26" />
      <polygon points="216,176 228,182 216,188 204,182" fill="#1f2335" />
    

      <polygon points="288,152 300,158 300,162 288,156" fill="#15161e" />
      <polygon points="300,158 312,152 312,156 300,162" fill="#1a1b26" />
      <polygon points="300,146 312,152 300,158 288,152" fill="#1f2335" />
    

      <polygon points="276,158 288,164 288,168 276,162" fill="#15161e" />
      <polygon points="288,164 300,158 300,162 288,168" fill="#1a1b26" />
      <polygon points="288,152 300,158 288,164 276,158" fill="#1f2335" />
    

      <polygon points="264,164 276,170 276,174 264,168" fill="#15161e" />
      <polygon points="276,170 288,164 288,168 276,174" fill="#1a1b26" />
      <polygon points="276,158 288,164 276,170 264,164" fill="#1f2335" />
    

      <polygon points="252,170 264,176 264,180 252,174" fill="#15161e" />
      <polygon points="264,176 276,170 276,174 264,180" fill="#1a1b26" />
      <polygon points="264,164 276,170 264,176 252,170" fill="#1f2335" />
    

      <polygon points="240,176 252,182 252,186 240,180" fill="#15161e" />
      <polygon points="252,182 264,176 264,180 252,186" fill="#1a1b26" />
      <polygon points="252,170 264,176 252,182 240,176" fill="#1f2335" />
    

      <polygon points="228,182 240,188 240,192 228,186" fill="#15161e" />
      <polygon points="240,188 252,182 252,186 240,192" fill="#1a1b26" />
      <polygon points="240,176 252,182 240,188 228,182" fill="#1f2335" />
    

      <polygon points="216,188 228,194 228,198 216,192" fill="#15161e" />
      <polygon points="228,194 240,188 240,192 228,198" fill="#1a1b26" />
      <polygon points="228,182 240,188 228,194 216,188" fill="#1f2335" />
    

      <polygon points="300,158 312,164 312,168 300,162" fill="#15161e" />
      <polygon points="312,164 324,158 324,162 312,168" fill="#1a1b26" />
      <polygon points="312,152 324,158 312,164 300,158" fill="#1f2335" />
    

      <polygon points="288,164 300,170 300,174 288,168" fill="#15161e" />
      <polygon points="300,170 312,164 312,168 300,174" fill="#1a1b26" />
      <polygon points="300,158 312,164 300,170 288,164" fill="#1f2335" />
    

      <polygon points="276,170 288,176 288,180 276,174" fill="#15161e" />
      <polygon points="288,176 300,170 300,174 288,180" fill="#1a1b26" />
      <polygon points="288,164 300,170 288,176 276,170" fill="#1f2335" />
    

      <polygon points="264,176 276,182 276,186 264,180" fill="#15161e" />
      <polygon points="276,182 288,176 288,180 276,186" fill="#1a1b26" />
      <polygon points="276,170 288,176 276,182 264,176" fill="#1f2335" />
    

      <polygon points="252,182 264,188 264,192 252,186" fill="#15161e" />
      <polygon points="264,188 276,182 276,186 264,192" fill="#1a1b26" />
      <polygon points="264,176 276,182 264,188 252,182" fill="#1f2335" />
    

      <polygon points="240,188 252,194 252,198 240,192" fill="#15161e" />
      <polygon points="252,194 264,188 264,192 252,198" fill="#1a1b26" />
      <polygon points="252,182 264,188 252,194 240,188" fill="#1f2335" />
    

      <polygon points="228,194 240,200 240,204 228,198" fill="#15161e" />
      <polygon points="240,200 252,194 252,198 240,204" fill="#1a1b26" />
      <polygon points="240,188 252,194 240,200 228,194" fill="#1f2335" />
    

      <polygon points="312,164 324,170 324,174 312,168" fill="#15161e" />
      <polygon points="324,170 336,164 336,168 324,174" fill="#1a1b26" />
      <polygon points="324,158 336,164 324,170 312,164" fill="#1f2335" />
    

      <polygon points="300,170 312,176 312,180 300,174" fill="#15161e" />
      <polygon points="312,176 324,170 324,174 312,180" fill="#1a1b26" />
      <polygon points="312,164 324,170 312,176 300,170" fill="#1f2335" />
    

      <polygon points="288,176 300,182 300,186 288,180" fill="#15161e" />
      <polygon points="300,182 312,176 312,180 300,186" fill="#1a1b26" />
      <polygon points="300,170 312,176 300,182 288,176" fill="#1f2335" />
    

      <polygon points="276,182 288,188 288,192 276,186" fill="#15161e" />
      <polygon points="288,188 300,182 300,186 288,192" fill="#1a1b26" />
      <polygon points="288,176 300,182 288,188 276,182" fill="#1f2335" />
    

      <polygon points="264,188 276,194 276,198 264,192" fill="#15161e" />
      <polygon points="276,194 288,188 288,192 276,198" fill="#1a1b26" />
      <polygon points="276,182 288,188 276,194 264,188" fill="#1f2335" />
    

      <polygon points="252,194 264,200 264,204 252,198" fill="#15161e" />
      <polygon points="264,200 276,194 276,198 264,204" fill="#1a1b26" />
      <polygon points="264,188 276,194 264,200 252,194" fill="#1f2335" />
    

      <polygon points="240,200 252,206 252,210 240,204" fill="#15161e" />
      <polygon points="252,206 264,200 264,204 252,210" fill="#1a1b26" />
      <polygon points="252,194 264,200 252,206 240,200" fill="#1f2335" />
    

      <polygon points="324,170 336,176 336,180 324,174" fill="#15161e" />
      <polygon points="336,176 348,170 348,174 336,180" fill="#1a1b26" />
      <polygon points="336,164 348,170 336,176 324,170" fill="#1f2335" />
    

      <polygon points="312,176 324,182 324,186 312,180" fill="#15161e" />
      <polygon points="324,182 336,176 336,180 324,186" fill="#1a1b26" />
      <polygon points="324,170 336,176 324,182 312,176" fill="#1f2335" />
    

      <polygon points="300,182 312,188 312,192 300,186" fill="#15161e" />
      <polygon points="312,188 324,182 324,186 312,192" fill="#1a1b26" />
      <polygon points="312,176 324,182 312,188 300,182" fill="#1f2335" />
    

      <polygon points="288,188 300,194 300,198 288,192" fill="#15161e" />
      <polygon points="300,194 312,188 312,192 300,198" fill="#1a1b26" />
      <polygon points="300,182 312,188 300,194 288,188" fill="#1f2335" />
    

      <polygon points="276,194 288,200 288,204 276,198" fill="#15161e" />
      <polygon points="288,200 300,194 300,198 288,204" fill="#1a1b26" />
      <polygon points="288,188 300,194 288,200 276,194" fill="#1f2335" />
    

      <polygon points="264,200 276,206 276,210 264,204" fill="#15161e" />
      <polygon points="276,206 288,200 288,204 276,210" fill="#1a1b26" />
      <polygon points="276,194 288,200 276,206 264,200" fill="#1f2335" />
    

      <polygon points="252,206 264,212 264,216 252,210" fill="#15161e" />
      <polygon points="264,212 276,206 276,210 264,216" fill="#1a1b26" />
      <polygon points="264,200 276,206 264,212 252,206" fill="#1f2335" />
    

      <polygon points="336,176 348,182 348,186 336,180" fill="#15161e" />
      <polygon points="348,182 360,176 360,180 348,186" fill="#1a1b26" />
      <polygon points="348,170 360,176 348,182 336,176" fill="#1f2335" />
    

      <polygon points="324,182 336,188 336,192 324,186" fill="#15161e" />
      <polygon points="336,188 348,182 348,186 336,192" fill="#1a1b26" />
      <polygon points="336,176 348,182 336,188 324,182" fill="#1f2335" />
    

      <polygon points="312,188 324,194 324,198 312,192" fill="#15161e" />
      <polygon points="324,194 336,188 336,192 324,198" fill="#1a1b26" />
      <polygon points="324,182 336,188 324,194 312,188" fill="#1f2335" />
    

      <polygon points="300,194 312,200 312,204 300,198" fill="#15161e" />
      <polygon points="312,200 324,194 324,198 312,204" fill="#1a1b26" />
      <polygon points="312,188 324,194 312,200 300,194" fill="#1f2335" />
    

      <polygon points="288,200 300,206 300,210 288,204" fill="#15161e" />
      <polygon points="300,206 312,200 312,204 300,210" fill="#1a1b26" />
      <polygon points="300,194 312,200 300,206 288,200" fill="#1f2335" />
    

      <polygon points="276,206 288,212 288,216 276,210" fill="#15161e" />
      <polygon points="288,212 300,206 300,210 288,216" fill="#1a1b26" />
      <polygon points="288,200 300,206 288,212 276,206" fill="#1f2335" />
    

      <polygon points="264,197 276,203 276,222 264,216" fill="#294182" />
      <polygon points="276,203 288,197 288,216 276,222" fill="#334e96" />
      <polygon points="276,191 288,197 276,203 264,197" fill="#3d59a1" />
    

      <polygon points="348,182 360,188 360,192 348,186" fill="#15161e" />
      <polygon points="360,188 372,182 372,186 360,192" fill="#1a1b26" />
      <polygon points="360,176 372,182 360,188 348,182" fill="#1f2335" />
    

      <polygon points="336,188 348,194 348,198 336,192" fill="#15161e" />
      <polygon points="348,194 360,188 360,192 348,198" fill="#1a1b26" />
      <polygon points="348,182 360,188 348,194 336,188" fill="#1f2335" />
    

      <polygon points="324,194 336,200 336,204 324,198" fill="#15161e" />
      <polygon points="336,200 348,194 348,198 336,204" fill="#1a1b26" />
      <polygon points="336,188 348,194 336,200 324,194" fill="#1f2335" />
    

      <polygon points="312,200 324,206 324,210 312,204" fill="#15161e" />
      <polygon points="324,206 336,200 336,204 324,210" fill="#1a1b26" />
      <polygon points="324,194 336,200 324,206 312,200" fill="#1f2335" />
    

      <polygon points="300,206 312,212 312,216 300,210" fill="#15161e" />
      <polygon points="312,212 324,206 324,210 312,216" fill="#1a1b26" />
      <polygon points="312,200 324,206 312,212 300,206" fill="#1f2335" />
    

      <polygon points="288,212 300,218 300,222 288,216" fill="#15161e" />
      <polygon points="300,218 312,212 312,216 300,222" fill="#1a1b26" />
      <polygon points="300,206 312,212 300,218 288,212" fill="#1f2335" />
    

      <polygon points="276,218 288,224 288,228 276,222" fill="#15161e" />
      <polygon points="288,224 300,218 300,222 288,228" fill="#1a1b26" />
      <polygon points="288,212 300,218 288,224 276,218" fill="#1f2335" />
    

      <polygon points="360,188 372,194 372,198 360,192" fill="#15161e" />
      <polygon points="372,194 384,188 384,192 372,198" fill="#1a1b26" />
      <polygon points="372,182 384,188 372,194 360,188" fill="#1f2335" />
    

      <polygon points="348,194 360,200 360,204 348,198" fill="#15161e" />
      <polygon points="360,200 372,194 372,198 360,204" fill="#1a1b26" />
      <polygon points="360,188 372,194 360,200 348,194" fill="#1f2335" />
    

      <polygon points="336,200 348,206 348,210 336,204" fill="#15161e" />
      <polygon points="348,206 360,200 360,204 348,210" fill="#1a1b26" />
      <polygon points="348,194 360,200 348,206 336,200" fill="#1f2335" />
    

      <polygon points="324,206 336,212 336,216 324,210" fill="#15161e" />
      <polygon points="336,212 348,206 348,210 336,216" fill="#1a1b26" />
      <polygon points="336,200 348,206 336,212 324,206" fill="#1f2335" />
    

      <polygon points="312,212 324,218 324,222 312,216" fill="#15161e" />
      <polygon points="324,218 336,212 336,216 324,222" fill="#1a1b26" />
      <polygon points="324,206 336,212 324,218 312,212" fill="#1f2335" />
    

      <polygon points="300,218 312,224 312,228 300,222" fill="#15161e" />
      <polygon points="312,224 324,218 324,222 312,228" fill="#1a1b26" />
      <polygon points="312,212 324,218 312,224 300,218" fill="#1f2335" />
    

      <polygon points="288,224 300,230 300,234 288,228" fill="#15161e" />
      <polygon points="300,230 312,224 312,228 300,234" fill="#1a1b26" />
      <polygon points="300,218 312,224 300,230 288,224" fill="#1f2335" />
    

      <polygon points="372,194 384,200 384,204 372,198" fill="#15161e" />
      <polygon points="384,200 396,194 396,198 384,204" fill="#1a1b26" />
      <polygon points="384,188 396,194 384,200 372,194" fill="#1f2335" />
    

      <polygon points="360,200 372,206 372,210 360,204" fill="#15161e" />
      <polygon points="372,206 384,200 384,204 372,210" fill="#1a1b26" />
      <polygon points="372,194 384,200 372,206 360,200" fill="#1f2335" />
    

      <polygon points="348,206 360,212 360,216 348,210" fill="#15161e" />
      <polygon points="360,212 372,206 372,210 360,216" fill="#1a1b26" />
      <polygon points="360,200 372,206 360,212 348,206" fill="#1f2335" />
    

      <polygon points="336,212 348,218 348,222 336,216" fill="#15161e" />
      <polygon points="348,218 360,212 360,216 348,222" fill="#1a1b26" />
      <polygon points="348,206 360,212 348,218 336,212" fill="#1f2335" />
    

      <polygon points="324,218 336,224 336,228 324,222" fill="#15161e" />
      <polygon points="336,224 348,218 348,222 336,228" fill="#1a1b26" />
      <polygon points="336,212 348,218 336,224 324,218" fill="#1f2335" />
    

      <polygon points="312,224 324,230 324,234 312,228" fill="#15161e" />
      <polygon points="324,230 336,224 336,228 324,234" fill="#1a1b26" />
      <polygon points="324,218 336,224 324,230 312,224" fill="#1f2335" />
    

      <polygon points="300,230 312,236 312,240 300,234" fill="#15161e" />
      <polygon points="312,236 324,230 324,234 312,240" fill="#1a1b26" />
      <polygon points="312,224 324,230 312,236 300,230" fill="#1f2335" />
    

      <polygon points="384,200 396,206 396,210 384,204" fill="#15161e" />
      <polygon points="396,206 408,200 408,204 396,210" fill="#1a1b26" />
      <polygon points="396,194 408,200 396,206 384,200" fill="#1f2335" />
    

      <polygon points="372,206 384,212 384,216 372,210" fill="#15161e" />
      <polygon points="384,212 396,206 396,210 384,216" fill="#1a1b26" />
      <polygon points="384,200 396,206 384,212 372,206" fill="#1f2335" />
    

      <polygon points="360,212 372,218 372,222 360,216" fill="#15161e" />
      <polygon points="372,218 384,212 384,216 372,222" fill="#1a1b26" />
      <polygon points="372,206 384,212 372,218 360,212" fill="#1f2335" />
    

      <polygon points="348,218 360,224 360,228 348,222" fill="#15161e" />
      <polygon points="360,224 372,218 372,222 360,228" fill="#1a1b26" />
      <polygon points="360,212 372,218 360,224 348,218" fill="#1f2335" />
    

      <polygon points="336,224 348,230 348,234 336,228" fill="#15161e" />
      <polygon points="348,230 360,224 360,228 348,234" fill="#1a1b26" />
      <polygon points="348,218 360,224 348,230 336,224" fill="#1f2335" />
    

      <polygon points="324,230 336,236 336,240 324,234" fill="#15161e" />
      <polygon points="336,236 348,230 348,234 336,240" fill="#1a1b26" />
      <polygon points="336,224 348,230 336,236 324,230" fill="#1f2335" />
    

      <polygon points="312,236 324,242 324,246 312,240" fill="#15161e" />
      <polygon points="324,242 336,236 336,240 324,246" fill="#1a1b26" />
      <polygon points="324,230 336,236 324,242 312,236" fill="#1f2335" />
    

      <polygon points="396,206 408,212 408,216 396,210" fill="#15161e" />
      <polygon points="408,212 420,206 420,210 408,216" fill="#1a1b26" />
      <polygon points="408,200 420,206 408,212 396,206" fill="#1f2335" />
    

      <polygon points="384,212 396,218 396,222 384,216" fill="#15161e" />
      <polygon points="396,218 408,212 408,216 396,222" fill="#1a1b26" />
      <polygon points="396,206 408,212 396,218 384,212" fill="#1f2335" />
    

      <polygon points="372,218 384,224 384,228 372,222" fill="#15161e" />
      <polygon points="384,224 396,218 396,222 384,228" fill="#1a1b26" />
      <polygon points="384,212 396,218 384,224 372,218" fill="#1f2335" />
    

      <polygon points="360,224 372,230 372,234 360,228" fill="#15161e" />
      <polygon points="372,230 384,224 384,228 372,234" fill="#1a1b26" />
      <polygon points="372,218 384,224 372,230 360,224" fill="#1f2335" />
    

      <polygon points="348,230 360,236 360,240 348,234" fill="#15161e" />
      <polygon points="360,236 372,230 372,234 360,240" fill="#1a1b26" />
      <polygon points="360,224 372,230 360,236 348,230" fill="#1f2335" />
    

      <polygon points="336,236 348,242 348,246 336,240" fill="#15161e" />
      <polygon points="348,242 360,236 360,240 348,246" fill="#1a1b26" />
      <polygon points="348,230 360,236 348,242 336,236" fill="#1f2335" />
    

      <polygon points="324,242 336,248 336,252 324,246" fill="#15161e" />
      <polygon points="336,248 348,242 348,246 336,252" fill="#1a1b26" />
      <polygon points="336,236 348,242 336,248 324,242" fill="#1f2335" />
    

      <polygon points="408,212 420,218 420,222 408,216" fill="#15161e" />
      <polygon points="420,218 432,212 432,216 420,222" fill="#1a1b26" />
      <polygon points="420,206 432,212 420,218 408,212" fill="#1f2335" />
    

      <polygon points="396,218 408,224 408,228 396,222" fill="#15161e" />
      <polygon points="408,224 420,218 420,222 408,228" fill="#1a1b26" />
      <polygon points="408,212 420,218 408,224 396,218" fill="#1f2335" />
    

      <polygon points="384,224 396,230 396,234 384,228" fill="#15161e" />
      <polygon points="396,230 408,224 408,228 396,234" fill="#1a1b26" />
      <polygon points="396,218 408,224 396,230 384,224" fill="#1f2335" />
    

      <polygon points="372,230 384,236 384,240 372,234" fill="#15161e" />
      <polygon points="384,236 396,230 396,234 384,240" fill="#1a1b26" />
      <polygon points="384,224 396,230 384,236 372,230" fill="#1f2335" />
    

      <polygon points="360,236 372,242 372,246 360,240" fill="#15161e" />
      <polygon points="372,242 384,236 384,240 372,246" fill="#1a1b26" />
      <polygon points="372,230 384,236 372,242 360,236" fill="#1f2335" />
    

      <polygon points="348,242 360,248 360,252 348,246" fill="#15161e" />
      <polygon points="360,248 372,242 372,246 360,252" fill="#1a1b26" />
      <polygon points="360,236 372,242 360,248 348,242" fill="#1f2335" />
    

      <polygon points="336,248 348,254 348,258 336,252" fill="#15161e" />
      <polygon points="348,254 360,248 360,252 348,258" fill="#1a1b26" />
      <polygon points="348,242 360,248 348,254 336,248" fill="#1f2335" />
    

      <polygon points="420,218 432,224 432,228 420,222" fill="#15161e" />
      <polygon points="432,224 444,218 444,222 432,228" fill="#1a1b26" />
      <polygon points="432,212 444,218 432,224 420,218" fill="#1f2335" />
    

      <polygon points="408,224 420,230 420,234 408,228" fill="#15161e" />
      <polygon points="420,230 432,224 432,228 420,234" fill="#1a1b26" />
      <polygon points="420,218 432,224 420,230 408,224" fill="#1f2335" />
    

      <polygon points="396,230 408,236 408,240 396,234" fill="#15161e" />
      <polygon points="408,236 420,230 420,234 408,240" fill="#1a1b26" />
      <polygon points="408,224 420,230 408,236 396,230" fill="#1f2335" />
    

      <polygon points="384,236 396,242 396,246 384,240" fill="#15161e" />
      <polygon points="396,242 408,236 408,240 396,246" fill="#1a1b26" />
      <polygon points="396,230 408,236 396,242 384,236" fill="#1f2335" />
    

      <polygon points="372,242 384,248 384,252 372,246" fill="#15161e" />
      <polygon points="384,248 396,242 396,246 384,252" fill="#1a1b26" />
      <polygon points="384,236 396,242 384,248 372,242" fill="#1f2335" />
    

      <polygon points="360,248 372,254 372,258 360,252" fill="#15161e" />
      <polygon points="372,254 384,248 384,252 372,258" fill="#1a1b26" />
      <polygon points="372,242 384,248 372,254 360,248" fill="#1f2335" />
    

      <polygon points="348,194 360,200 360,264 348,258" fill="#d6566e" />
      <polygon points="360,200 372,194 372,258 360,264" fill="#e7667e" />
      <polygon points="360,188 372,194 360,200 348,194" fill="#f7768e" />
    

      <polygon points="432,224 444,230 444,234 432,228" fill="#15161e" />
      <polygon points="444,230 456,224 456,228 444,234" fill="#1a1b26" />
      <polygon points="444,218 456,224 444,230 432,224" fill="#1f2335" />
    

      <polygon points="420,170 432,176 432,240 420,234" fill="#d6566e" />
      <polygon points="432,176 444,170 444,234 432,240" fill="#e7667e" />
      <polygon points="432,164 444,170 432,176 420,170" fill="#f7768e" />
    

      <polygon points="408,236 420,242 420,246 408,240" fill="#15161e" />
      <polygon points="420,242 432,236 432,240 420,246" fill="#1a1b26" />
      <polygon points="420,230 432,236 420,242 408,236" fill="#1f2335" />
    

      <polygon points="396,242 408,248 408,252 396,246" fill="#15161e" />
      <polygon points="408,248 420,242 420,246 408,252" fill="#1a1b26" />
      <polygon points="408,236 420,242 408,248 396,242" fill="#1f2335" />
    

      <polygon points="384,248 396,254 396,258 384,252" fill="#15161e" />
      <polygon points="396,254 408,248 408,252 396,258" fill="#1a1b26" />
      <polygon points="396,242 408,248 396,254 384,248" fill="#1f2335" />
    

      <polygon points="372,254 384,260 384,264 372,258" fill="#15161e" />
      <polygon points="384,260 396,254 396,258 384,264" fill="#1a1b26" />
      <polygon points="384,248 396,254 384,260 372,254" fill="#1f2335" />
    

      <polygon points="360,260 372,266 372,270 360,264" fill="#15161e" />
      <polygon points="372,266 384,260 384,264 372,270" fill="#1a1b26" />
      <polygon points="372,254 384,260 372,266 360,260" fill="#1f2335" />
    

      <polygon points="444,230 456,236 456,240 444,234" fill="#15161e" />
      <polygon points="456,236 468,230 468,234 456,240" fill="#1a1b26" />
      <polygon points="456,224 468,230 456,236 444,230" fill="#1f2335" />
    

      <polygon points="432,236 444,242 444,246 432,240" fill="#15161e" />
      <polygon points="444,242 456,236 456,240 444,246" fill="#1a1b26" />
      <polygon points="444,230 456,236 444,242 432,236" fill="#1f2335" />
    

      <polygon points="420,242 432,248 432,252 420,246" fill="#15161e" />
      <polygon points="432,248 444,242 444,246 432,252" fill="#1a1b26" />
      <polygon points="432,236 444,242 432,248 420,242" fill="#1f2335" />
    

      <polygon points="408,248 420,254 420,258 408,252" fill="#15161e" />
      <polygon points="420,254 432,248 432,252 420,258" fill="#1a1b26" />
      <polygon points="420,242 432,248 420,254 408,248" fill="#1f2335" />
    

      <polygon points="396,254 408,260 408,264 396,258" fill="#15161e" />
      <polygon points="408,260 420,254 420,258 408,264" fill="#1a1b26" />
      <polygon points="408,248 420,254 408,260 396,254" fill="#1f2335" />
    

      <polygon points="384,260 396,266 396,270 384,264" fill="#15161e" />
      <polygon points="396,266 408,260 408,264 396,270" fill="#1a1b26" />
      <polygon points="396,254 408,260 396,266 384,260" fill="#1f2335" />
    

      <polygon points="372,266 384,272 384,276 372,270" fill="#15161e" />
      <polygon points="384,272 396,266 396,270 384,276" fill="#1a1b26" />
      <polygon points="384,260 396,266 384,272 372,266" fill="#1f2335" />
    

      <polygon points="456,236 468,242 468,246 456,240" fill="#15161e" />
      <polygon points="468,242 480,236 480,240 468,246" fill="#1a1b26" />
      <polygon points="468,230 480,236 468,242 456,236" fill="#1f2335" />
    

      <polygon points="444,242 456,248 456,252 444,246" fill="#15161e" />
      <polygon points="456,248 468,242 468,246 456,252" fill="#1a1b26" />
      <polygon points="456,236 468,242 456,248 444,242" fill="#1f2335" />
    

      <polygon points="432,248 444,254 444,258 432,252" fill="#15161e" />
      <polygon points="444,254 456,248 456,252 444,258" fill="#1a1b26" />
      <polygon points="444,242 456,248 444,254 432,248" fill="#1f2335" />
    

      <polygon points="420,254 432,260 432,264 420,258" fill="#15161e" />
      <polygon points="432,260 444,254 444,258 432,264" fill="#1a1b26" />
      <polygon points="432,248 444,254 432,260 420,254" fill="#1f2335" />
    

      <polygon points="408,260 420,266 420,270 408,264" fill="#15161e" />
      <polygon points="420,266 432,260 432,264 420,270" fill="#1a1b26" />
      <polygon points="420,254 432,260 420,266 408,260" fill="#1f2335" />
    

      <polygon points="396,266 408,272 408,276 396,270" fill="#15161e" />
      <polygon points="408,272 420,266 420,270 408,276" fill="#1a1b26" />
      <polygon points="408,260 420,266 408,272 396,266" fill="#1f2335" />
    

      <polygon points="384,272 396,278 396,282 384,276" fill="#15161e" />
      <polygon points="396,278 408,272 408,276 396,282" fill="#1a1b26" />
      <polygon points="396,266 408,272 396,278 384,272" fill="#1f2335" />
    

      <polygon points="468,242 480,248 480,252 468,246" fill="#15161e" />
      <polygon points="480,248 492,242 492,246 480,252" fill="#1a1b26" />
      <polygon points="480,236 492,242 480,248 468,242" fill="#1f2335" />
    

      <polygon points="456,248 468,254 468,258 456,252" fill="#15161e" />
      <polygon points="468,254 480,248 480,252 468,258" fill="#1a1b26" />
      <polygon points="468,242 480,248 468,254 456,248" fill="#1f2335" />
    

      <polygon points="444,254 456,260 456,264 444,258" fill="#15161e" />
      <polygon points="456,260 468,254 468,258 456,264" fill="#1a1b26" />
      <polygon points="456,248 468,254 456,260 444,254" fill="#1f2335" />
    

      <polygon points="432,260 444,266 444,270 432,264" fill="#15161e" />
      <polygon points="444,266 456,260 456,264 444,270" fill="#1a1b26" />
      <polygon points="444,254 456,260 444,266 432,260" fill="#1f2335" />
    

      <polygon points="420,266 432,272 432,276 420,270" fill="#15161e" />
      <polygon points="432,272 444,266 444,270 432,276" fill="#1a1b26" />
      <polygon points="432,260 444,266 432,272 420,266" fill="#1f2335" />
    

      <polygon points="408,272 420,278 420,282 408,276" fill="#15161e" />
      <polygon points="420,278 432,272 432,276 420,282" fill="#1a1b26" />
      <polygon points="420,266 432,272 420,278 408,272" fill="#1f2335" />
    

      <polygon points="396,278 408,284 408,288 396,282" fill="#15161e" />
      <polygon points="408,284 420,278 420,282 408,288" fill="#1a1b26" />
      <polygon points="408,272 420,278 408,284 396,278" fill="#1f2335" />
    

      <polygon points="480,248 492,254 492,258 480,252" fill="#15161e" />
      <polygon points="492,254 504,248 504,252 492,258" fill="#1a1b26" />
      <polygon points="492,242 504,248 492,254 480,248" fill="#1f2335" />
    

      <polygon points="468,254 480,260 480,264 468,258" fill="#15161e" />
      <polygon points="480,260 492,254 492,258 480,264" fill="#1a1b26" />
      <polygon points="480,248 492,254 480,260 468,254" fill="#1f2335" />
    

      <polygon points="456,260 468,266 468,270 456,264" fill="#15161e" />
      <polygon points="468,266 480,260 480,264 468,270" fill="#1a1b26" />
      <polygon points="468,254 480,260 468,266 456,260" fill="#1f2335" />
    

      <polygon points="444,266 456,272 456,276 444,270" fill="#15161e" />
      <polygon points="456,272 468,266 468,270 456,276" fill="#1a1b26" />
      <polygon points="456,260 468,266 456,272 444,266" fill="#1f2335" />
    

      <polygon points="432,272 444,278 444,282 432,276" fill="#15161e" />
      <polygon points="444,278 456,272 456,276 444,282" fill="#1a1b26" />
      <polygon points="444,266 456,272 444,278 432,272" fill="#1f2335" />
    

      <polygon points="420,278 432,284 432,288 420,282" fill="#15161e" />
      <polygon points="432,284 444,278 444,282 432,288" fill="#1a1b26" />
      <polygon points="432,272 444,278 432,284 420,278" fill="#1f2335" />
    

      <polygon points="408,284 420,290 420,294 408,288" fill="#15161e" />
      <polygon points="420,290 432,284 432,288 420,294" fill="#1a1b26" />
      <polygon points="420,278 432,284 420,290 408,284" fill="#1f2335" />
    

      <polygon points="492,254 504,260 504,264 492,258" fill="#15161e" />
      <polygon points="504,260 516,254 516,258 504,264" fill="#1a1b26" />
      <polygon points="504,248 516,254 504,260 492,254" fill="#1f2335" />
    

      <polygon points="480,260 492,266 492,270 480,264" fill="#15161e" />
      <polygon points="492,266 504,260 504,264 492,270" fill="#1a1b26" />
      <polygon points="492,254 504,260 492,266 480,260" fill="#1f2335" />
    

      <polygon points="468,266 480,272 480,276 468,270" fill="#15161e" />
      <polygon points="480,272 492,266 492,270 480,276" fill="#1a1b26" />
      <polygon points="480,260 492,266 480,272 468,266" fill="#1f2335" />
    

      <polygon points="456,272 468,278 468,282 456,276" fill="#15161e" />
      <polygon points="468,278 480,272 480,276 468,282" fill="#1a1b26" />
      <polygon points="468,266 480,272 468,278 456,272" fill="#1f2335" />
    

      <polygon points="444,278 456,284 456,288 444,282" fill="#15161e" />
      <polygon points="456,284 468,278 468,282 456,288" fill="#1a1b26" />
      <polygon points="456,272 468,278 456,284 444,278" fill="#1f2335" />
    

      <polygon points="432,284 444,290 444,294 432,288" fill="#15161e" />
      <polygon points="444,290 456,284 456,288 444,294" fill="#1a1b26" />
      <polygon points="444,278 456,284 444,290 432,284" fill="#1f2335" />
    

      <polygon points="420,290 432,296 432,300 420,294" fill="#15161e" />
      <polygon points="432,296 444,290 444,294 432,300" fill="#1a1b26" />
      <polygon points="432,284 444,290 432,296 420,290" fill="#1f2335" />
    

      <polygon points="504,260 516,266 516,270 504,264" fill="#15161e" />
      <polygon points="516,266 528,260 528,264 516,270" fill="#1a1b26" />
      <polygon points="516,254 528,260 516,266 504,260" fill="#1f2335" />
    

      <polygon points="492,266 504,272 504,276 492,270" fill="#15161e" />
      <polygon points="504,272 516,266 516,270 504,276" fill="#1a1b26" />
      <polygon points="504,260 516,266 504,272 492,266" fill="#1f2335" />
    

      <polygon points="480,272 492,278 492,282 480,276" fill="#15161e" />
      <polygon points="492,278 504,272 504,276 492,282" fill="#1a1b26" />
      <polygon points="492,266 504,272 492,278 480,272" fill="#1f2335" />
    

      <polygon points="468,278 480,284 480,288 468,282" fill="#15161e" />
      <polygon points="480,284 492,278 492,282 480,288" fill="#1a1b26" />
      <polygon points="480,272 492,278 480,284 468,278" fill="#1f2335" />
    

      <polygon points="456,284 468,290 468,294 456,288" fill="#15161e" />
      <polygon points="468,290 480,284 480,288 468,294" fill="#1a1b26" />
      <polygon points="468,278 480,284 468,290 456,284" fill="#1f2335" />
    

      <polygon points="444,290 456,296 456,300 444,294" fill="#15161e" />
      <polygon points="456,296 468,290 468,294 456,300" fill="#1a1b26" />
      <polygon points="456,284 468,290 456,296 444,290" fill="#1f2335" />
    

      <polygon points="432,296 444,302 444,306 432,300" fill="#15161e" />
      <polygon points="444,302 456,296 456,300 444,306" fill="#1a1b26" />
      <polygon points="444,290 456,296 444,302 432,296" fill="#1f2335" />
    

      <polygon points="516,266 528,272 528,276 516,270" fill="#15161e" />
      <polygon points="528,272 540,266 540,270 528,276" fill="#1a1b26" />
      <polygon points="528,260 540,266 528,272 516,266" fill="#1f2335" />
    

      <polygon points="504,272 516,278 516,282 504,276" fill="#15161e" />
      <polygon points="516,278 528,272 528,276 516,282" fill="#1a1b26" />
      <polygon points="516,266 528,272 516,278 504,272" fill="#1f2335" />
    

      <polygon points="492,278 504,284 504,288 492,282" fill="#15161e" />
      <polygon points="504,284 516,278 516,282 504,288" fill="#1a1b26" />
      <polygon points="504,272 516,278 504,284 492,278" fill="#1f2335" />
    

      <polygon points="480,284 492,290 492,294 480,288" fill="#15161e" />
      <polygon points="492,290 504,284 504,288 492,294" fill="#1a1b26" />
      <polygon points="492,278 504,284 492,290 480,284" fill="#1f2335" />
    

      <polygon points="468,290 480,296 480,300 468,294" fill="#15161e" />
      <polygon points="480,296 492,290 492,294 480,300" fill="#1a1b26" />
      <polygon points="480,284 492,290 480,296 468,290" fill="#1f2335" />
    

      <polygon points="456,266 468,272 468,306 456,300" fill="#5a82d6" />
      <polygon points="468,272 480,266 480,300 468,306" fill="#6b92e7" />
      <polygon points="468,260 480,266 468,272 456,266" fill="#7aa2f7" />
    

      <polygon points="444,302 456,308 456,312 444,306" fill="#15161e" />
      <polygon points="456,308 468,302 468,306 456,312" fill="#1a1b26" />
      <polygon points="456,296 468,302 456,308 444,302" fill="#1f2335" />
    

      <polygon points="528,272 540,278 540,282 528,276" fill="#15161e" />
      <polygon points="540,278 552,272 552,276 540,282" fill="#1a1b26" />
      <polygon points="540,266 552,272 540,278 528,272" fill="#1f2335" />
    

      <polygon points="516,278 528,284 528,288 516,282" fill="#15161e" />
      <polygon points="528,284 540,278 540,282 528,288" fill="#1a1b26" />
      <polygon points="528,272 540,278 528,284 516,278" fill="#1f2335" />
    

      <polygon points="504,284 516,290 516,294 504,288" fill="#15161e" />
      <polygon points="516,290 528,284 528,288 516,294" fill="#1a1b26" />
      <polygon points="516,278 528,284 516,290 504,284" fill="#1f2335" />
    

      <polygon points="492,290 504,296 504,300 492,294" fill="#15161e" />
      <polygon points="504,296 516,290 516,294 504,300" fill="#1a1b26" />
      <polygon points="504,284 516,290 504,296 492,290" fill="#1f2335" />
    

      <polygon points="480,296 492,302 492,306 480,300" fill="#15161e" />
      <polygon points="492,302 504,296 504,300 492,306" fill="#1a1b26" />
      <polygon points="492,290 504,296 492,302 480,296" fill="#1f2335" />
    

      <polygon points="468,302 480,308 480,312 468,306" fill="#15161e" />
      <polygon points="480,308 492,302 492,306 480,312" fill="#1a1b26" />
      <polygon points="480,296 492,302 480,308 468,302" fill="#1f2335" />
    

      <polygon points="456,308 468,314 468,318 456,312" fill="#15161e" />
      <polygon points="468,314 480,308 480,312 468,318" fill="#1a1b26" />
      <polygon points="468,302 480,308 468,314 456,308" fill="#1f2335" />
    

      <polygon points="540,278 552,284 552,288 540,282" fill="#15161e" />
      <polygon points="552,284 564,278 564,282 552,288" fill="#1a1b26" />
      <polygon points="552,272 564,278 552,284 540,278" fill="#1f2335" />
    

      <polygon points="528,284 540,290 540,294 528,288" fill="#15161e" />
      <polygon points="540,290 552,284 552,288 540,294" fill="#1a1b26" />
      <polygon points="540,278 552,284 540,290 528,284" fill="#1f2335" />
    

      <polygon points="516,290 528,296 528,300 516,294" fill="#15161e" />
      <polygon points="528,296 540,290 540,294 528,300" fill="#1a1b26" />
      <polygon points="528,284 540,290 528,296 516,290" fill="#1f2335" />
    

      <polygon points="504,296 516,302 516,306 504,300" fill="#15161e" />
      <polygon points="516,302 528,296 528,300 516,306" fill="#1a1b26" />
      <polygon points="516,290 528,296 516,302 504,296" fill="#1f2335" />
    

      <polygon points="492,302 504,308 504,312 492,306" fill="#15161e" />
      <polygon points="504,308 516,302 516,306 504,312" fill="#1a1b26" />
      <polygon points="504,296 516,302 504,308 492,302" fill="#1f2335" />
    

      <polygon points="480,308 492,314 492,318 480,312" fill="#15161e" />
      <polygon points="492,314 504,308 504,312 492,318" fill="#1a1b26" />
      <polygon points="492,302 504,308 492,314 480,308" fill="#1f2335" />
    

      <polygon points="468,314 480,320 480,324 468,318" fill="#15161e" />
      <polygon points="480,320 492,314 492,318 480,324" fill="#1a1b26" />
      <polygon points="480,308 492,314 480,320 468,314" fill="#1f2335" />
    

      <polygon points="552,284 564,290 564,294 552,288" fill="#15161e" />
      <polygon points="564,290 576,284 576,288 564,294" fill="#1a1b26" />
      <polygon points="564,278 576,284 564,290 552,284" fill="#1f2335" />
    

      <polygon points="540,290 552,296 552,300 540,294" fill="#15161e" />
      <polygon points="552,296 564,290 564,294 552,300" fill="#1a1b26" />
      <polygon points="552,284 564,290 552,296 540,290" fill="#1f2335" />
    

      <polygon points="528,296 540,302 540,306 528,300" fill="#15161e" />
      <polygon points="540,302 552,296 552,300 540,306" fill="#1a1b26" />
      <polygon points="540,290 552,296 540,302 528,296" fill="#1f2335" />
    

      <polygon points="516,302 528,308 528,312 516,306" fill="#15161e" />
      <polygon points="528,308 540,302 540,306 528,312" fill="#1a1b26" />
      <polygon points="528,296 540,302 528,308 516,302" fill="#1f2335" />
    

      <polygon points="504,308 516,314 516,318 504,312" fill="#15161e" />
      <polygon points="516,314 528,308 528,312 516,318" fill="#1a1b26" />
      <polygon points="516,302 528,308 516,314 504,308" fill="#1f2335" />
    

      <polygon points="492,314 504,320 504,324 492,318" fill="#15161e" />
      <polygon points="504,320 516,314 516,318 504,324" fill="#1a1b26" />
      <polygon points="504,308 516,314 504,320 492,314" fill="#1f2335" />
    

      <polygon points="480,320 492,326 492,330 480,324" fill="#15161e" />
      <polygon points="492,326 504,320 504,324 492,330" fill="#1a1b26" />
      <polygon points="492,314 504,320 492,326 480,320" fill="#1f2335" />
    

      <polygon points="564,290 576,296 576,300 564,294" fill="#15161e" />
      <polygon points="576,296 588,290 588,294 576,300" fill="#1a1b26" />
      <polygon points="576,284 588,290 576,296 564,290" fill="#1f2335" />
    

      <polygon points="552,296 564,302 564,306 552,300" fill="#15161e" />
      <polygon points="564,302 576,296 576,300 564,306" fill="#1a1b26" />
      <polygon points="564,290 576,296 564,302 552,296" fill="#1f2335" />
    

      <polygon points="540,287 552,293 552,312 540,306" fill="#294182" />
      <polygon points="552,293 564,287 564,306 552,312" fill="#334e96" />
      <polygon points="552,281 564,287 552,293 540,287" fill="#3d59a1" />
    

      <polygon points="528,308 540,314 540,318 528,312" fill="#15161e" />
      <polygon points="540,314 552,308 552,312 540,318" fill="#1a1b26" />
      <polygon points="540,302 552,308 540,314 528,308" fill="#1f2335" />
    

      <polygon points="516,314 528,320 528,324 516,318" fill="#15161e" />
      <polygon points="528,320 540,314 540,318 528,324" fill="#1a1b26" />
      <polygon points="528,308 540,314 528,320 516,314" fill="#1f2335" />
    

      <polygon points="504,320 516,326 516,330 504,324" fill="#15161e" />
      <polygon points="516,326 528,320 528,324 516,330" fill="#1a1b26" />
      <polygon points="516,314 528,320 516,326 504,320" fill="#1f2335" />
    

      <polygon points="492,326 504,332 504,336 492,330" fill="#15161e" />
      <polygon points="504,332 516,326 516,330 504,336" fill="#1a1b26" />
      <polygon points="504,320 516,326 504,332 492,326" fill="#1f2335" />
    

      <polygon points="576,296 588,302 588,306 576,300" fill="#15161e" />
      <polygon points="588,302 600,296 600,300 588,306" fill="#1a1b26" />
      <polygon points="588,290 600,296 588,302 576,296" fill="#1f2335" />
    

      <polygon points="564,302 576,308 576,312 564,306" fill="#15161e" />
      <polygon points="576,308 588,302 588,306 576,312" fill="#1a1b26" />
      <polygon points="576,296 588,302 576,308 564,302" fill="#1f2335" />
    

      <polygon points="552,308 564,314 564,318 552,312" fill="#15161e" />
      <polygon points="564,314 576,308 576,312 564,318" fill="#1a1b26" />
      <polygon points="564,302 576,308 564,314 552,308" fill="#1f2335" />
    

      <polygon points="540,314 552,320 552,324 540,318" fill="#15161e" />
      <polygon points="552,320 564,314 564,318 552,324" fill="#1a1b26" />
      <polygon points="552,308 564,314 552,320 540,314" fill="#1f2335" />
    

      <polygon points="528,320 540,326 540,330 528,324" fill="#15161e" />
      <polygon points="540,326 552,320 552,324 540,330" fill="#1a1b26" />
      <polygon points="540,314 552,320 540,326 528,320" fill="#1f2335" />
    

      <polygon points="516,326 528,332 528,336 516,330" fill="#15161e" />
      <polygon points="528,332 540,326 540,330 528,336" fill="#1a1b26" />
      <polygon points="528,320 540,326 528,332 516,326" fill="#1f2335" />
    

      <polygon points="504,332 516,338 516,342 504,336" fill="#15161e" />
      <polygon points="516,338 528,332 528,336 516,342" fill="#1a1b26" />
      <polygon points="516,326 528,332 516,338 504,332" fill="#1f2335" />
    

      <polygon points="588,302 600,308 600,312 588,306" fill="#15161e" />
      <polygon points="600,308 612,302 612,306 600,312" fill="#1a1b26" />
      <polygon points="600,296 612,302 600,308 588,302" fill="#1f2335" />
    

      <polygon points="576,308 588,314 588,318 576,312" fill="#15161e" />
      <polygon points="588,314 600,308 600,312 588,318" fill="#1a1b26" />
      <polygon points="588,302 600,308 588,314 576,308" fill="#1f2335" />
    

      <polygon points="564,314 576,320 576,324 564,318" fill="#15161e" />
      <polygon points="576,320 588,314 588,318 576,324" fill="#1a1b26" />
      <polygon points="576,308 588,314 576,320 564,314" fill="#1f2335" />
    

      <polygon points="552,320 564,326 564,330 552,324" fill="#15161e" />
      <polygon points="564,326 576,320 576,324 564,330" fill="#1a1b26" />
      <polygon points="564,314 576,320 564,326 552,320" fill="#1f2335" />
    

      <polygon points="540,326 552,332 552,336 540,330" fill="#15161e" />
      <polygon points="552,332 564,326 564,330 552,336" fill="#1a1b26" />
      <polygon points="552,320 564,326 552,332 540,326" fill="#1f2335" />
    

      <polygon points="528,332 540,338 540,342 528,336" fill="#15161e" />
      <polygon points="540,338 552,332 552,336 540,342" fill="#1a1b26" />
      <polygon points="540,326 552,332 540,338 528,332" fill="#1f2335" />
    

      <polygon points="516,338 528,344 528,348 516,342" fill="#15161e" />
      <polygon points="528,344 540,338 540,342 528,348" fill="#1a1b26" />
      <polygon points="528,332 540,338 528,344 516,338" fill="#1f2335" />
    

      <polygon points="600,308 612,314 612,318 600,312" fill="#15161e" />
      <polygon points="612,314 624,308 624,312 612,318" fill="#1a1b26" />
      <polygon points="612,302 624,308 612,314 600,308" fill="#1f2335" />
    

      <polygon points="588,314 600,320 600,324 588,318" fill="#15161e" />
      <polygon points="600,320 612,314 612,318 600,324" fill="#1a1b26" />
      <polygon points="600,308 612,314 600,320 588,314" fill="#1f2335" />
    

      <polygon points="576,320 588,326 588,330 576,324" fill="#15161e" />
      <polygon points="588,326 600,320 600,324 588,330" fill="#1a1b26" />
      <polygon points="588,314 600,320 588,326 576,320" fill="#1f2335" />
    

      <polygon points="564,326 576,332 576,336 564,330" fill="#15161e" />
      <polygon points="576,332 588,326 588,330 576,336" fill="#1a1b26" />
      <polygon points="576,320 588,326 576,332 564,326" fill="#1f2335" />
    

      <polygon points="552,332 564,338 564,342 552,336" fill="#15161e" />
      <polygon points="564,338 576,332 576,336 564,342" fill="#1a1b26" />
      <polygon points="564,326 576,332 564,338 552,332" fill="#1f2335" />
    

      <polygon points="540,338 552,344 552,348 540,342" fill="#15161e" />
      <polygon points="552,344 564,338 564,342 552,348" fill="#1a1b26" />
      <polygon points="552,332 564,338 552,344 540,338" fill="#1f2335" />
    

      <polygon points="528,344 540,350 540,354 528,348" fill="#15161e" />
      <polygon points="540,350 552,344 552,348 540,354" fill="#1a1b26" />
      <polygon points="540,338 552,344 540,350 528,344" fill="#1f2335" />
    

      <polygon points="612,314 624,320 624,324 612,318" fill="#15161e" />
      <polygon points="624,320 636,314 636,318 624,324" fill="#1a1b26" />
      <polygon points="624,308 636,314 624,320 612,314" fill="#1f2335" />
    

      <polygon points="600,305 612,311 612,330 600,324" fill="#294182" />
      <polygon points="612,311 624,305 624,324 612,330" fill="#334e96" />
      <polygon points="612,299 624,305 612,311 600,305" fill="#3d59a1" />
    

      <polygon points="588,326 600,332 600,336 588,330" fill="#15161e" />
      <polygon points="600,332 612,326 612,330 600,336" fill="#1a1b26" />
      <polygon points="600,320 612,326 600,332 588,326" fill="#1f2335" />
    

      <polygon points="576,287 588,293 588,342 576,336" fill="#9a7ad6" />
      <polygon points="588,293 600,287 600,336 588,342" fill="#ab8be7" />
      <polygon points="588,281 600,287 588,293 576,287" fill="#bb9af7" />
    

      <polygon points="564,338 576,344 576,348 564,342" fill="#15161e" />
      <polygon points="576,344 588,338 588,342 576,348" fill="#1a1b26" />
      <polygon points="576,332 588,338 576,344 564,338" fill="#1f2335" />
    

      <polygon points="552,344 564,350 564,354 552,348" fill="#15161e" />
      <polygon points="564,350 576,344 576,348 564,354" fill="#1a1b26" />
      <polygon points="564,338 576,344 564,350 552,344" fill="#1f2335" />
    

      <polygon points="540,290 552,296 552,360 540,354" fill="#d6566e" />
      <polygon points="552,296 564,290 564,354 552,360" fill="#e7667e" />
      <polygon points="552,284 564,290 552,296 540,290" fill="#f7768e" />
    
            </g>
        </svg>